HIERARCHY
ROOT Hips
{
    OFFSET 0.0 0.0 0.0
    CHANNELS 6 Xposition Yposition Zposition Zrotation Xrotation Yrotation
    JOINT LeftUpLeg
    {
        OFFSET 12.481166578582648 0.0 0.0
        CHANNELS 3 Zrotation Xrotation Yrotation
        JOINT LeftLeg
        {
            OFFSET 0.0 0.0 -50.501368270938585
            CHANNELS 3 Zrotation Xrotation Yrotation
            JOINT LeftFoot
            {
                OFFSET 0.0 0.0 -37.44323608246586
                CHANNELS 3 Zrotation Xrotation Yrotation
                JOINT LeftToeBase
                {
                    OFFSET 0.0 -12.272526091637435 0.0
                    CHANNELS 3 Zrotation Xrotation Yrotation
                    End Site
                    {
                        OFFSET 0 0 0
                    }
                }
            }
        }
    }
    JOINT RightUpLeg
    {
        OFFSET -12.481166578582648 0.0 0.0
        CHANNELS 3 Zrotation Xrotation Yrotation
        JOINT RightLeg
        {
            OFFSET 0.0 0.0 -50.501368270938585
            CHANNELS 3 Zrotation Xrotation Yrotation
            JOINT RightFoot
            {
                OFFSET 0.0 0.0 -37.44323608246586
                CHANNELS 3 Zrotation Xrotation Yrotation
                JOINT RightToeBase
                {
                    OFFSET 0.0 -12.272526091637435 0.0
                    CHANNELS 3 Zrotation Xrotation Yrotation
                    End Site
                    {
                        OFFSET 0 0 0
                    }
                }
            }
        }
    }
    JOINT Spine
    {
        OFFSET 0.0 0.0 12.064896449021303
        CHANNELS 3 Zrotation Xrotation Yrotation
        JOINT Spine1
        {
            OFFSET 0.0 0.0 11.960371657409608
            CHANNELS 3 Zrotation Xrotation Yrotation
            JOINT Spine2
            {
                OFFSET 0.0 0.0 11.960371657409608
                CHANNELS 3 Zrotation Xrotation Yrotation
                JOINT Spine3
                {
                    OFFSET 0.0 0.0 11.960371657409604
                    CHANNELS 3 Zrotation Xrotation Yrotation
                    JOINT Spine4
                    {
                        OFFSET 0.0 0.0 11.960371657409612
                        CHANNELS 3 Zrotation Xrotation Yrotation
                        JOINT RightShoulder
                        {
                            OFFSET -21.14127522045111 0.0 0.0
                            CHANNELS 3 Zrotation Xrotation Yrotation
                            JOINT RightArm
                            {
                                OFFSET -31.344809157605425 0.0 0.0
                                CHANNELS 3 Zrotation Xrotation Yrotation
                                JOINT RightForeArm
                                {
                                    OFFSET -31.19763595432745 0.0 0.0
                                    CHANNELS 3 Zrotation Xrotation Yrotation
                                    JOINT RightHand
                                    {
                                        OFFSET -12.05566485286791 0.0 0.0
                                        CHANNELS 3 Zrotation Xrotation Yrotation
                                        End Site
                                        {
                                            OFFSET 0 0 0
                                        }
                                    }
                                }
                            }
                        }
                        JOINT LeftShoulder
                        {
                            OFFSET 21.14127522045111 0.0 0.0
                            CHANNELS 3 Zrotation Xrotation Yrotation
                            JOINT LeftArm
                            {
                                OFFSET 31.344809157605425 0.0 0.0
                                CHANNELS 3 Zrotation Xrotation Yrotation
                                JOINT LeftForeArm
                                {
                                    OFFSET 31.19763595432745 0.0 0.0
                                    CHANNELS 3 Zrotation Xrotation Yrotation
                                    JOINT LeftHand
                                    {
                                        OFFSET 12.05566485286791 0.0 0.0
                                        CHANNELS 3 Zrotation Xrotation Yrotation
                                        End Site
                                        {
                                            OFFSET 0 0 0
                                        }
                                    }
                                }
                            }
                        }
                        JOINT Neck
                        {
                            OFFSET 0.0 0.0 11.960371565550519
                            CHANNELS 3 Zrotation Xrotation Yrotation
                            JOINT Head
                            {
                                OFFSET 0.0 0.0 25.11069871723343
                                CHANNELS 3 Zrotation Xrotation Yrotation
                                End Site
                                {
                                    OFFSET 0 0 0
                                }
                            }
                        }
                    }
                }
            }
        }
    }
}
MOTION
Frames: 5
Frame Time: 0.03333333333333333
93.01362905502319 -29.10505260229111 436.8043962478638 143.9562551771745 -70.39620274670833 143.79840477413939 -24.17952195221072 23.99806896281773 -35.94703910361678 13.797611548131384 -0.41040848990266876 63.880529440057806 108.83287527216764 -6.3611093629270335e-15 29.35351307022454 0.0 0.0 0.0 62.14353310455411 40.87948970738169 -9.516925808358973 -52.766639547975586 -21.122487762603484 -61.16971686817962 -145.28466009014042 -1.5902773407317584e-15 -33.651738962926586 -3.1805546814635168e-15 -6.3611093629270335e-15 -1.7655625192200634e-31 -0.020938710836902682 2.3235527058171264 -0.6381748084573631 0.0 0.0 0.0 0.0 0.0 0.0 0.0 0.0 0.0 0.0 0.0 0.0 140.2916830432521 32.657606484159714 174.63475500821446 101.9310914312684 -2.938028364612292e-15 -6.4766989846395575e-15 -6.514163664712899e-15 -26.60051499033584 9.419368964820797e-17 0.0 0.0 3.1805546814635168e-15 -13.351598136199678 8.780618761425727 -7.109286118094933 -13.460868081047856 8.562708388718267e-15 -2.5924552400092573e-15 180.0 50.534039861249255 -180.0 0.0 0.0 0.0 -12.951079594262577 3.8678892753371875e-15 7.891245358455612e-16 -9.93923337957349e-17 -1.7241821476758432e-34 1.987846675914698e-16
92.92681431770325 -28.59188597202301 436.89733486175544 144.65083455707014 -70.37888539675338 144.5586107891596 -27.687397000177516 26.45782843130643 -33.619562941544054 17.753030733622744 -0.8055469795506991 56.8435318745341 88.11495889825446 3.1805546814635168e-15 38.99813323477261 -1.5902773407317584e-15 0.0 0.0 61.13691847046642 40.56075448230352 -8.785279651911871 -53.35809224790935 -21.191497140306428 -61.48983527864486 -171.63891667496338 -2.9817700138720468e-15 -24.69197307327506 0.0 0.0 -1.5902773407317582e-15 -0.01349984849262675 2.388126689198464 -0.6507096348913531 7.951386703658794e-16 5.517382872562698e-33 7.951386703658794e-16 7.951386703658794e-16 5.517382872562698e-33 7.951386703658794e-16 7.951386703658794e-16 5.517382872562698e-33 7.951386703658794e-16 7.951386703658794e-16 5.517382872562698e-33 7.951386703658794e-16 139.77121155516215 32.12983286395658 175.54435443449916 101.96905927995293 2.0022552383852388e-15 -2.4712146896088095e-15 3.872833864283798e-15 -31.976450889045964 1.3516659766241386e-14 0.0 0.0 1.5902773407317584e-15 -13.776332140754462 6.871764208704137 -7.630891487339745 -12.891674920297229 -9.096732683404211e-15 1.7256396329530249e-16 180.0 56.68904356131728 -180.0 1.5902773407317584e-15 2.758691436281349e-32 1.987846675914698e-15 -12.725111939225643 1.996686415189753e-15 -2.82761098752716e-15 4.969616689786745e-17 -6.3611093629270335e-15 9.93923337957349e-17
92.84082527160646 -27.892725419998172 436.9934125900269 145.56288424117284 -70.44462382597352 145.5343245498953 -30.242312409120547 28.13999705891296 -31.421709949018027 20.319787878692367 -1.2873609151521208 47.77257707098582 74.1017736638684 3.1805546814635168e-15 45.55274523847653 -3.1805546814635168e-15 0.0 0.0 59.69019600668277 40.07138355004135 -7.7732257170566745 -53.80539834110448 -21.189475430498828 -61.42623391507297 -170.25685269572105 1.5902773407317584e-15 -25.19802302422095 0.0 0.0 0.0 -0.004802467883169866 2.4388271177037226 -0.6420407940124844 0.0 0.0 0.0 0.0 0.0 0.0 0.0 0.0 0.0 0.0 0.0 0.0 139.08788322438997 31.427616738102653 176.79668220763594 102.11456129136536 6.94662591281301e-15 1.5244765778234502e-15 -1.1891618353804221e-14 -42.266612199757915 -1.3121261914747886e-14 -3.1805546814635176e-15 -6.361109362927035e-15 -7.951386703658796e-16 -14.391420362779805 4.662785712986549 -8.047827245426095 -11.596983939595738 -6.34090213685981e-15 9.54539315080826e-16 180.0 77.49600106274092 -180.0 1.5902773407317584e-15 -9.655420026984722e-33 -6.957463365701443e-16 -12.401559426728134 -1.773816118895064e-14 -2.027202452235045e-15 0.0 0.0 9.93923337957349e-17
92.775394821167 -27.101605367660525 437.0735864639283 146.70901560372337 -70.6507742614337 146.71211832798517 -32.17314289565658 29.3316352519186 -29.289784796251045 21.843294373008426 -1.842293025359075 36.65875086827839 57.99038274278163 0.0 50.24181389507011 1.1927080055488188e-15 0.0 0.0 57.928399691332416 39.455802544241706 -6.457003322317707 -54.41060961812725 -21.134838073760335 -60.95766515277432 -164.29198885665073 1.5107634736951704e-14 -25.57204612741587 1.5902773407317584e-15 0.0 0.0 0.00504199982160752 2.4634658547376094 -0.6078313221516541 0.0 0.0 0.0 0.0 0.0 0.0 0.0 0.0 0.0 0.0 0.0 0.0 138.3567573518734 30.134977386900935 178.29793553548595 103.29243877878385 1.1950274149991607e-14 5.400159731924026e-15 -4.964614660704014e-15 -68.1812920714992 1.53625433027182e-14 0.0 0.0 -3.1805546814635168e-15 -15.911082621560528 -2.2544405163694314 -8.33178901935993 -9.293542589533505 -1.1367546372759926e-15 -8.901559701017828e-16 -180.0 81.64052137149817 -180.0 0.0 0.0 -9.93923337957349e-17 -11.937697182030366 9.270948609678526e-15 6.991293901920798e-17 2.484808344893372e-16 -6.361109362927032e-15 4.969616689786745e-17
92.74556579589844 -26.312867081165315 437.13306598663337 147.66949671508715 -70.89499624659916 147.69546316147847 -33.11762597941653 29.866961104084147 -27.605270605211253 20.979105021813528 -2.2161795705251435 25.068173907333907 47.713787674852014 -3.1805546814635168e-15 59.18158676211243 3.975693351829396e-16 2.758691436281349e-33 7.951386703658792e-16 55.883372116958846 38.746215039033906 -5.000682192954908 -54.87242318611331 -21.069555865875827 -60.2842437892724 163.98957843872032 -1.0734372049939369e-14 -22.66707822596356 0.0 0.0 0.0 0.01175133683755684 2.4652116333374017 -0.5650603996780054 0.0 0.0 0.0 0.0 0.0 0.0 0.0 0.0 0.0 0.0 0.0 0.0 137.60277444992508 25.546885317971253 179.82867968830692 109.03312537396513 -1.0359490885158827e-14 -7.384835672429218e-15 -180.0 -67.10694094392342 -180.0 -3.975693351829396e-16 5.517382872562698e-33 -1.5902773407317584e-15 -20.237346363357776 -23.961722125519547 -9.28969643818968 -6.20124952933999 1.9084340942739935e-14 3.839917502211436e-17 -180.0 67.14863639865912 180.0 0.0 0.0 3.975693351829396e-16 -11.512367855486168 -3.745600245403504e-15 5.214938789860311e-16 0.0 0.0 -9.93923337957349e-17
